<?xml version="1.0" encoding="utf-8"?>
<!-- Generator: Adobe Illustrator 18.0.0, SVG Export Plug-In . SVG Version: 6.00 Build 0)  -->
<!DOCTYPE svg PUBLIC "-//W3C//DTD SVG 1.1//EN" "http://www.w3.org/Graphics/SVG/1.1/DTD/svg11.dtd">
<svg version="1.1" id="Ebene_1" xmlns="http://www.w3.org/2000/svg" xmlns:xlink="http://www.w3.org/1999/xlink" x="0px" y="0px"
	 viewBox="0 0 100 27" enable-background="new 0 0 100 27" xml:space="preserve">
<g>
	<g>
		<path d="M18,18.4H5.6v0.7c0,1.2,0.3,2.3,0.9,3.1c0.7,0.9,1.6,1.4,2.8,1.4c1.8,0,2.9-1,3.3-3H18c-0.6,2.2-1.5,3.8-2.8,4.8
			c-1.3,1-3.1,1.5-5.4,1.5c-6.4,0-9.6-3.1-9.6-9.3c0-2.9,0.8-5.3,2.4-7.2c1.7-2,3.9-3,6.8-3C15.1,7.4,17.9,11.1,18,18.4z M5.7,14.9
			h7c0-1.2-0.3-2.1-0.8-2.9c-0.6-0.8-1.5-1.3-2.6-1.3C7.1,10.8,5.9,12.2,5.7,14.9z"/>
		<path d="M19.8,0.6h8.5l6.8,20.8l6.9-20.8h8.5v25.9h-5V4.2l-7.6,22.3h-5.7L24.7,4.3v22.2h-5V0.6z"/>
		<path d="M60.5,0.6h6.3l9.8,25.9H71l-2-5.7H58.3l-2,5.7h-5.7L60.5,0.6z M63.7,5.9l-3.8,10.6h7.6L63.7,5.9z"/>
		<path d="M99.8,8.8h-5.6c-0.1-3.1-1.9-4.7-5.4-4.7c-2.5,0-4.3,0.9-5.4,2.8c-1,1.5-1.5,3.6-1.5,6.2c0,3,0.5,5.2,1.4,6.7
			c1.2,1.9,3.2,2.8,5.9,2.8c1.3,0,3-0.2,5.2-0.7v-5.3h-5.6v-4.4h10.7v12.9c-4.4,1.3-8,2-10.7,2c-4.1,0-7.2-1.2-9.5-3.7
			c-2.1-2.4-3.2-5.6-3.2-9.7c0-4.2,1.1-7.5,3.2-9.9C81.6,1.2,84.8,0,89,0c3.6,0,6.2,0.7,7.8,2C98.6,3.4,99.6,5.7,99.8,8.8z"/>
	</g>
</g>
</svg>
